<?xml version="1.0" standalone="no"?>
<!DOCTYPE svg PUBLIC "-//W3C//DTD SVG 20010904//EN"
 "http://www.w3.org/TR/2001/REC-SVG-20010904/DTD/svg10.dtd">
<svg version="1.0" xmlns="http://www.w3.org/2000/svg"
 width="512.000000pt" height="512.000000pt" viewBox="0 0 512.000000 512.000000"
 preserveAspectRatio="xMidYMid meet">
<metadata>
Created by potrace 1.14, written by Peter Selinger 2001-2017
</metadata>
<g transform="translate(0.000000,512.000000) scale(0.100000,-0.100000)"
fill="#000000" stroke="none">
<path d="M0 2560 l0 -2560 1203 2 c661 0 1186 3 1167 5 -112 11 -341 48 -459
73 -348 74 -345 74 -791 69 -677 -7 -689 -6 -732 52 -19 26 -19 29 1 305 22
293 20 371 -14 516 -30 133 -40 327 -40 838 0 451 2 530 23 735 32 330 42 716
42 1678 l0 847 -200 0 -200 0 0 -2560z"/>
<path d="M517 4887 c-49 -398 -49 -411 -48 -1007 1 -653 -10 -1023 -39 -1320
-34 -353 -24 -864 25 -1234 14 -104 25 -190 25 -191 0 -4 168 -33 230 -40 69
-8 517 48 610 76 36 11 85 30 110 42 l44 22 1 290 0 290 35 100 c31 87 39 102
70 120 46 26 173 24 330 -5 164 -31 403 -38 504 -16 127 29 243 83 251 119 31
144 33 336 3 443 -14 47 -23 108 -23 151 0 125 39 154 245 178 414 48 417 49
570 97 154 49 245 87 270 113 22 23 23 30 17 117 -3 51 -18 147 -32 213 -54
250 -67 337 -61 418 6 89 15 111 59 137 40 25 105 26 218 4 91 -18 221 -14
274 7 17 6 82 15 145 19 92 6 127 13 174 34 75 34 109 34 135 0 76 -97 -52
-167 -339 -186 -201 -14 -292 -15 -417 -4 l-101 8 -7 -44 c-10 -65 11 -219 56
-408 21 -91 42 -206 45 -256 l7 -90 -31 -36 c-17 -19 -60 -49 -94 -66 -86 -41
-325 -106 -488 -131 -214 -34 -489 -101 -501 -123 -7 -13 -6 -50 5 -116 10
-66 14 -165 13 -312 -2 -190 -4 -219 -21 -254 -22 -44 -68 -68 -215 -113 -82
-26 -96 -27 -316 -27 -126 0 -298 3 -381 8 -83 5 -167 6 -187 2 -34 -6 -38
-11 -52 -59 -24 -80 -48 -284 -42 -362 3 -38 11 -113 18 -165 14 -106 10 -136
-25 -177 -27 -32 -152 -102 -206 -115 -19 -4 -109 -13 -200 -18 -91 -6 -203
-17 -250 -26 -47 -9 -161 -18 -253 -21 l-168 -6 8 -46 c12 -68 6 -280 -12
-411 -8 -63 -15 -138 -15 -167 l0 -52 52 -15 c41 -11 136 -16 423 -21 580 -9
609 -11 1060 -103 206 -41 214 -41 930 -23 l370 9 155 40 c85 23 207 57 270
77 68 21 146 38 190 42 97 7 282 -19 424 -59 163 -46 176 -36 196 137 20 178
25 384 16 675 -10 323 -1 507 38 775 34 237 40 324 27 445 -35 319 -34 299 -7
596 101 1090 104 1227 36 1502 -16 64 -38 166 -50 227 -29 143 -34 155 -64
155 -14 0 -112 13 -218 30 -414 63 -550 74 -953 74 -225 1 -425 -4 -510 -12
-77 -7 -345 -17 -595 -22 -503 -10 -740 -25 -1037 -69 -109 -16 -245 -34 -303
-40 -58 -6 -168 -21 -244 -33 l-139 -21 -19 23 c-21 26 -23 40 -5 64 14 20 36
23 377 50 102 9 244 27 315 41 178 34 515 55 910 55 302 0 458 6 860 30 258
16 545 13 868 -9 161 -11 391 -24 512 -30 121 -5 232 -14 247 -20 41 -15 63
-60 77 -153 7 -46 28 -166 47 -268 19 -102 38 -230 43 -285 14 -152 5 -405
-28 -770 -17 -181 -36 -429 -42 -550 -12 -211 -12 -227 11 -398 28 -216 24
-308 -20 -522 -77 -377 -82 -542 -34 -1259 26 -400 16 -496 -55 -543 -84 -57
-145 -53 -346 18 -109 38 -131 43 -240 47 -137 5 -209 -7 -420 -68 -260 -76
-405 -94 -700 -88 -121 2 -265 -1 -340 -8 -107 -9 89 -12 1122 -12 1172 -1
1252 0 1256 16 4 16 5 16 6 0 1 -16 12 -18 81 -18 l80 0 0 2560 0 2560 -2287
0 -2288 0 -28 -233z m1819 -4676 c-3 -5 8 -14 24 -20 17 -5 30 -12 30 -15 0
-4 -60 13 -69 20 -4 3 9 24 15 24 3 0 3 -4 0 -9z m191 -77 c-3 -3 -12 -4 -19
-1 -8 3 -5 6 6 6 11 1 17 -2 13 -5z m2415 -104 c-9 -11 -18 -17 -20 -15 -3 3
0 11 6 18 7 8 9 17 5 21 -4 4 0 4 9 1 15 -6 15 -8 0 -25z"/>
</g>
</svg>
