<?xml version="1.0" standalone="no"?>
<!DOCTYPE svg PUBLIC "-//W3C//DTD SVG 20010904//EN"
 "http://www.w3.org/TR/2001/REC-SVG-20010904/DTD/svg10.dtd">
<svg version="1.0" xmlns="http://www.w3.org/2000/svg"
 width="801.000000pt" height="801.000000pt" viewBox="0 0 801.000000 801.000000"
 preserveAspectRatio="xMidYMid meet">
<metadata>
Created by potrace 1.14, written by Peter Selinger 2001-2017
</metadata>
<g transform="translate(0.000000,801.000000) scale(0.100000,-0.100000)"
fill="#000000" stroke="none">
<path d="M629 7463 c-6 -2580 -12 -2857 -81 -3533 -18 -178 -21 -293 -25 -885
-6 -832 9 -1155 67 -1460 16 -83 34 -200 40 -260 11 -111 10 -144 -15 -470
-40 -519 -39 -487 -22 -526 32 -77 202 -116 447 -104 249 13 914 20 1160 14
192 -6 260 -11 373 -33 76 -14 143 -26 148 -26 5 0 9 -8 9 -17 0 -15 2 -16 10
-3 10 15 31 12 348 -55 184 -39 511 -85 647 -92 77 -3 183 0 297 11 183 17
360 21 372 9 3 -4 22 -12 41 -19 32 -11 35 -10 35 7 0 24 37 26 42 2 3 -16 4
-16 20 0 24 24 58 22 58 -3 0 -15 7 -20 25 -20 21 0 24 3 16 18 -9 16 2 17
157 18 264 2 569 43 735 99 112 38 363 106 460 124 130 25 359 28 482 7 111
-20 328 -89 380 -122 67 -42 253 -36 341 11 117 62 136 119 137 405 0 107 -8
294 -16 415 -9 121 -26 406 -37 634 -32 636 -14 900 95 1421 73 345 76 455 20
805 -38 237 -27 577 41 1330 64 707 76 934 62 1210 -10 208 -25 321 -84 625
-24 129 -54 295 -64 368 -33 221 -52 238 -280 261 -58 5 -224 13 -370 16 -146
3 -317 10 -380 15 -272 23 -532 40 -770 51 -287 13 -611 4 -1160 -32 -243 -16
-452 -22 -910 -25 -327 -2 -669 -8 -760 -14 -91 -5 -221 -12 -290 -15 -143 -7
-366 -30 -425 -45 -149 -36 -352 -65 -550 -80 -290 -21 -530 -40 -563 -46 -46
-7 -72 -36 -72 -79 0 -45 37 -85 77 -85 28 0 184 26 213 35 9 3 151 21 315 40
165 19 359 43 430 54 266 40 342 50 435 61 125 14 307 28 455 35 66 3 131 9
145 11 14 3 306 10 650 14 519 7 682 13 965 35 426 32 807 41 1120 26 275 -13
741 -59 1015 -101 341 -51 476 -70 500 -70 27 0 30 -4 49 -67 10 -38 26 -108
35 -158 20 -110 46 -227 91 -407 82 -330 84 -597 10 -1468 -25 -300 -57 -662
-72 -805 -35 -336 -37 -614 -8 -820 31 -215 28 -503 -8 -745 -67 -461 -64
-437 -78 -647 -12 -187 -11 -434 1 -668 24 -463 -9 -1143 -61 -1258 -13 -28
-63 -57 -101 -57 -13 0 -85 18 -161 40 -142 41 -245 61 -402 79 -247 28 -324
24 -500 -30 -231 -70 -293 -88 -350 -103 -33 -8 -120 -31 -194 -50 -201 -53
-337 -64 -864 -70 -375 -4 -456 -2 -447 9 13 15 -15 25 -73 25 -24 0 -40 5
-43 15 -4 8 -15 15 -25 15 -12 0 -16 -5 -13 -15 5 -11 -1 -15 -21 -15 -21 0
-25 3 -17 13 17 20 -1 39 -31 31 -23 -5 -27 -3 -27 15 0 14 -6 21 -20 21 -11
0 -20 5 -20 10 0 6 -17 10 -38 10 -21 0 -43 5 -50 12 -7 7 -42 13 -79 15 -38
1 -70 3 -72 3 -2 0 2 6 8 14 9 11 6 15 -20 18 -20 3 -33 0 -36 -9 -9 -23 5
-43 30 -43 13 0 32 -9 42 -20 22 -24 168 -70 236 -74 16 -1 28 -5 27 -9 -4
-12 51 -34 107 -43 41 -7 22 -10 -110 -16 -239 -11 -394 4 -691 68 -61 13
-151 30 -200 38 -49 9 -179 31 -290 50 -227 40 -398 56 -586 56 l-128 0 16 25
c15 23 15 25 0 31 -21 8 -25 4 -28 -31 l-3 -28 -295 7 c-162 4 -385 9 -495 11
-161 4 -216 9 -282 26 l-83 22 0 101 c0 56 7 144 15 196 8 52 20 172 26 265 6
94 15 178 21 189 6 12 6 22 -1 29 -6 6 -11 36 -12 66 0 31 -6 92 -12 137 l-12
80 195 0 c152 0 228 5 345 22 83 12 156 25 164 28 25 8 342 34 427 34 146 0
256 25 372 83 145 74 185 105 217 172 31 62 31 64 -5 313 -24 161 -25 281 -5
450 19 155 41 262 67 324 19 44 23 48 67 55 73 13 342 7 503 -11 188 -20 544
-21 685 -1 158 22 405 99 475 147 16 11 40 40 55 66 l28 47 0 400 c0 356 -2
409 -19 482 -23 100 -17 147 22 167 44 23 493 124 667 151 181 28 338 56 370
66 17 5 104 29 195 54 251 69 362 120 441 201 l34 35 -1 117 c0 118 -10 191
-44 337 -71 303 -91 406 -106 531 -19 158 -13 271 13 281 8 3 110 -2 227 -12
179 -15 230 -15 336 -5 69 6 193 15 275 20 195 11 371 51 465 106 101 60 64
224 -51 224 -31 0 -112 -29 -172 -61 -42 -22 -149 -39 -258 -39 -89 0 -133 -5
-182 -20 -146 -45 -274 -49 -447 -15 -231 46 -342 29 -397 -58 -20 -32 -27
-60 -34 -136 -4 -53 -6 -125 -3 -161 7 -74 56 -346 85 -465 31 -128 69 -383
69 -466 0 -66 -3 -78 -22 -96 -68 -61 -144 -94 -438 -188 -183 -59 -353 -91
-665 -125 -462 -50 -515 -63 -565 -131 -55 -77 -64 -197 -25 -330 59 -197 68
-343 39 -597 -24 -206 -22 -201 -79 -236 -79 -46 -211 -96 -324 -122 -202 -45
-429 -42 -731 11 -242 42 -293 49 -410 48 -132 0 -191 -18 -229 -72 -27 -37
-70 -163 -101 -292 -22 -92 -22 -102 -16 -500 l7 -407 -27 -21 c-15 -12 -30
-21 -35 -21 -5 0 -32 -11 -61 -24 -132 -60 -201 -74 -706 -137 -251 -31 -269
-32 -390 -21 -101 9 -329 47 -339 56 -5 5 -76 550 -84 646 -35 430 -38 1270
-4 1510 4 31 34 363 50 560 4 41 10 631 15 1310 8 1339 5 1259 76 1818 24 194
44 362 44 373 0 18 -8 19 -110 19 l-110 0 -1 -547z m3183 -7178 c0 -5 -5 -11
-11 -13 -6 -2 -11 4 -11 13 0 9 5 15 11 13 6 -2 11 -8 11 -13z m218 -85 c0 -5
-4 -10 -10 -10 -5 0 -10 5 -10 10 0 6 5 10 10 10 6 0 10 -4 10 -10z"/>
<path d="M5045 7910 c-3 -5 -1 -10 4 -10 6 0 11 5 11 10 0 6 -2 10 -4 10 -3 0
-8 -4 -11 -10z"/>
<path d="M5522 7771 c16 -25 31 -27 26 -4 -2 10 -11 19 -21 21 -16 3 -17 1 -5
-17z"/>
<path d="M4950 7734 c0 -8 5 -12 10 -9 6 4 8 11 5 16 -9 14 -15 11 -15 -7z"/>
<path d="M6306 6994 c-3 -9 -6 -25 -6 -37 1 -22 1 -22 15 -3 17 22 20 56 6 56
-5 0 -12 -7 -15 -16z"/>
<path d="M4490 6924 c0 -8 5 -12 10 -9 6 3 10 10 10 16 0 5 -4 9 -10 9 -5 0
-10 -7 -10 -16z"/>
<path d="M3634 4579 c-3 -6 -1 -16 5 -22 8 -8 11 -5 11 11 0 24 -5 28 -16 11z"/>
<path d="M4917 4253 c-4 -3 -7 -16 -7 -27 1 -21 1 -21 15 -2 8 11 15 23 15 28
0 10 -14 11 -23 1z"/>
<path d="M4750 3809 c0 -5 5 -7 10 -4 6 3 10 8 10 11 0 2 -4 4 -10 4 -5 0 -10
-5 -10 -11z"/>
<path d="M3670 3641 c0 -11 5 -23 10 -26 6 -4 10 5 10 19 0 14 -4 26 -10 26
-5 0 -10 -9 -10 -19z"/>
<path d="M6112 2950 c0 -14 2 -19 5 -12 2 6 2 18 0 25 -3 6 -5 1 -5 -13z"/>
<path d="M5927 2820 c-14 -17 -15 -20 -2 -20 9 0 18 7 22 15 9 24 -1 27 -20 5z"/>
<path d="M6026 2795 c-3 -8 -1 -15 4 -15 6 0 10 7 10 15 0 8 -2 15 -4 15 -2 0
-6 -7 -10 -15z"/>
<path d="M4370 2765 c0 -8 2 -15 4 -15 2 0 6 7 10 15 3 8 1 15 -4 15 -6 0 -10
-7 -10 -15z"/>
<path d="M5826 2674 c-9 -22 -8 -24 9 -18 8 4 15 12 15 20 0 19 -16 18 -24 -2z"/>
<path d="M2757 2339 c6 -6 9 -18 6 -25 -6 -16 22 -19 32 -4 7 12 -18 40 -36
40 -10 0 -10 -3 -2 -11z"/>
<path d="M5800 2329 c0 -5 5 -7 10 -4 6 3 10 8 10 11 0 2 -4 4 -10 4 -5 0 -10
-5 -10 -11z"/>
<path d="M7400 2056 c0 -9 7 -16 16 -16 17 0 14 22 -4 28 -7 2 -12 -3 -12 -12z"/>
<path d="M7670 1849 c0 -5 5 -7 10 -4 6 3 10 8 10 11 0 2 -4 4 -10 4 -5 0 -10
-5 -10 -11z"/>
<path d="M7525 1720 c-3 -5 -1 -10 4 -10 6 0 11 5 11 10 0 6 -2 10 -4 10 -3 0
-8 -4 -11 -10z"/>
<path d="M5031 1711 c-7 -5 -11 -17 -9 -27 4 -17 5 -17 17 4 14 27 12 35 -8
23z"/>
<path d="M7635 1649 c-10 -15 3 -25 16 -12 7 7 7 13 1 17 -6 3 -14 1 -17 -5z"/>
<path d="M7580 1531 c0 -5 9 -7 20 -4 11 3 20 7 20 9 0 2 -9 4 -20 4 -11 0
-20 -4 -20 -9z"/>
<path d="M865 1300 c-3 -5 1 -10 10 -10 9 0 13 5 10 10 -3 6 -8 10 -10 10 -2
0 -7 -4 -10 -10z"/>
<path d="M970 1245 c0 -8 4 -15 9 -15 5 0 14 7 21 15 10 13 9 15 -9 15 -12 0
-21 -6 -21 -15z"/>
<path d="M7750 1250 c0 -5 5 -10 10 -10 6 0 10 5 10 10 0 6 -4 10 -10 10 -5 0
-10 -4 -10 -10z"/>
<path d="M904 1215 c-7 -17 4 -37 17 -30 12 8 12 45 -1 45 -6 0 -13 -7 -16
-15z"/>
<path d="M1075 1220 c3 -5 14 -10 23 -10 15 0 15 2 2 10 -20 13 -33 13 -25 0z"/>
<path d="M1300 1185 c0 -17 -8 -29 -25 -37 -20 -9 -22 -14 -14 -29 5 -10 15
-18 22 -16 8 1 13 -14 15 -42 3 -39 1 -43 -15 -36 -46 20 -92 27 -125 21 -53
-10 -78 -39 -127 -145 -4 -8 -4 -41 0 -75 4 -36 3 -68 -3 -79 -11 -21 -1 -38
11 -19 5 8 15 -1 30 -28 12 -22 27 -40 33 -40 6 0 19 -7 29 -16 23 -20 97 -20
137 0 25 13 31 13 35 2 3 -8 19 -13 39 -12 l33 2 0 284 0 285 -37 3 c-35 3
-38 1 -38 -23z m-55 -215 c-3 -5 0 -7 9 -4 9 3 21 -4 31 -20 14 -20 16 -44 14
-117 -4 -81 -7 -93 -28 -110 -50 -40 -115 -20 -150 48 -14 27 -14 90 -1 98 6
3 10 19 10 35 0 22 4 28 15 24 10 -4 15 0 15 13 0 10 5 24 12 31 14 14 82 16
73 2z"/>
<path d="M4609 1130 c-1 -44 -2 -173 -2 -287 l-1 -208 34 0 35 0 3 288 2 287
-35 0 -35 0 -1 -80z"/>
<path d="M1942 1182 l-113 -3 3 -32 c2 -27 8 -33 31 -35 15 -2 27 -8 27 -13 0
-5 14 -9 30 -9 17 0 30 5 30 10 0 6 11 10 25 10 l25 0 0 -105 c0 -93 -2 -105
-17 -105 -17 -1 -17 -1 0 -11 15 -9 17 -26 17 -129 0 -65 3 -121 8 -123 4 -3
22 -2 40 0 l32 5 0 85 c0 67 3 83 13 76 6 -5 22 -7 34 -4 18 5 20 9 10 22 -7
9 -21 18 -32 20 -19 4 -20 14 -22 137 -2 125 -1 132 17 132 11 0 20 -6 20 -12
0 -10 2 -10 8 -1 4 6 32 13 62 15 54 3 55 4 55 33 l0 30 -95 5 c-52 3 -146 4
-208 2z"/>
<path d="M6091 1144 c0 -11 3 -14 6 -6 3 7 2 16 -1 19 -3 4 -6 -2 -5 -13z"/>
<path d="M3747 1134 c-4 -4 -7 -27 -7 -51 0 -43 0 -43 -35 -43 -31 0 -35 -3
-35 -25 0 -26 32 -47 57 -38 8 3 12 -35 15 -141 3 -129 5 -148 24 -173 19 -25
28 -28 75 -28 53 0 54 0 54 30 0 27 -4 31 -35 35 l-35 5 -3 138 -3 137 34 0
c41 0 45 4 39 35 -4 21 -10 25 -38 25 -32 0 -33 1 -36 48 -3 44 -5 47 -33 50
-17 2 -34 0 -38 -4z"/>
<path d="M3381 1097 c0 -10 -13 -22 -27 -27 -26 -10 -26 -11 -21 -89 3 -44 10
-89 17 -100 6 -12 8 -27 4 -33 -5 -7 -3 -8 5 -3 7 4 27 0 44 -9 18 -8 57 -22
88 -30 68 -19 94 -53 64 -86 -27 -30 -98 -28 -130 5 -14 13 -25 29 -25 35 0 5
-16 10 -35 10 -32 0 -35 -3 -35 -29 0 -18 12 -41 34 -65 35 -38 56 -45 151
-49 45 -2 53 1 87 34 89 87 50 179 -89 210 -69 16 -100 38 -88 65 4 10 8 22 7
26 -2 8 23 15 62 17 31 1 66 -23 66 -46 0 -14 3 -15 48 -17 65 -3 21 100 -55
125 -62 20 -165 -4 -195 -46 -5 -7 -8 -6 -8 1 0 6 9 23 21 38 13 16 19 36 16
53 -2 16 -5 20 -6 10z"/>
<path d="M7687 1061 c-15 -5 -11 -9 18 -20 42 -15 55 -9 32 14 -17 16 -23 17
-50 6z"/>
<path d="M4805 1050 c-5 -8 -10 -21 -12 -30 -1 -8 -4 -24 -6 -35 -2 -11 -11
-44 -20 -73 -32 -105 13 -224 101 -265 26 -12 50 -26 54 -32 4 -5 15 -5 30 2
13 6 36 14 51 18 15 3 45 21 65 40 l37 35 -24 19 c-24 18 -25 18 -59 -5 -41
-28 -97 -31 -131 -8 -19 14 -51 69 -51 89 0 3 47 3 105 1 58 -2 105 -1 105 3
0 4 12 7 28 6 27 0 27 0 24 60 -2 33 -11 76 -21 95 -42 84 -159 104 -246 42
-46 -33 -57 -35 -29 -8 8 9 14 26 12 38 -2 19 -5 20 -13 8z m186 -88 c11 -11
23 -33 28 -49 l9 -31 -89 -1 c-80 -2 -89 0 -89 17 0 10 12 33 26 50 32 38 82
44 115 14z"/>
<path d="M1570 1043 c-103 -39 -154 -202 -97 -313 32 -65 87 -99 160 -100 33
0 71 7 87 15 17 9 30 12 30 8 0 -5 10 8 21 27 l21 34 -22 18 c-22 17 -23 17
-52 -7 -23 -19 -41 -25 -78 -25 -42 0 -52 4 -74 31 -14 17 -26 34 -26 39 0 5
-3 16 -7 26 -5 13 -3 16 9 11 9 -3 19 -3 22 0 3 3 55 5 114 5 l109 -1 6 43
c15 111 -59 197 -167 195 -22 0 -48 -3 -56 -6z m113 -102 c19 -8 27 -17 27
-36 0 -25 -1 -25 -85 -25 -75 0 -85 2 -85 18 0 10 7 27 15 40 13 18 23 21 58
18 23 -3 54 -9 70 -15z"/>
<path d="M2388 1035 c-17 -10 -29 -11 -33 -5 -3 5 -22 10 -41 10 l-34 0 0
-110 c0 -91 -3 -110 -15 -110 -10 0 -15 -10 -15 -30 0 -22 4 -28 15 -24 12 5
15 -5 15 -59 0 -70 7 -78 58 -69 18 4 22 11 22 43 0 36 2 39 29 39 16 0 34 -7
41 -15 13 -15 50 -21 50 -7 0 12 -35 30 -74 37 -29 6 -35 11 -31 25 3 10 1 21
-5 25 -5 3 -10 35 -10 70 0 81 26 118 83 119 36 1 37 2 37 39 0 35 -2 37 -32
37 -18 -1 -45 -7 -60 -15z"/>
<path d="M2598 1032 c-64 -30 -102 -97 -63 -112 22 -8 65 4 65 19 0 14 59 41
91 41 31 0 59 -31 59 -66 0 -24 -31 -34 -108 -34 -81 0 -134 -54 -136 -139 -1
-20 -5 -42 -9 -48 -5 -9 -2 -13 8 -13 9 0 24 -9 33 -20 25 -28 164 -62 225
-54 42 6 49 4 53 -12 5 -20 53 -48 63 -38 3 4 0 9 -7 11 -7 3 -20 12 -29 21
-15 16 -15 17 0 20 20 4 23 18 5 24 -8 3 -13 56 -17 169 -5 130 -10 170 -23
190 -36 56 -137 75 -210 41z m152 -242 c0 -26 -7 -47 -20 -60 -58 -58 -159
-23 -134 47 12 35 47 53 107 53 l47 0 0 -40z m-23 -162 c-3 -8 -6 -5 -6 6 -1
11 2 17 5 13 3 -3 4 -12 1 -19z"/>
<path d="M3032 1030 c-39 -24 -42 -24 -42 -5 0 10 -11 15 -35 15 l-35 0 0
-214 c0 -183 -2 -215 -16 -227 -14 -12 -14 -14 3 -27 16 -13 16 -14 1 -9 -13
5 -18 1 -18 -13 0 -11 7 -20 15 -20 8 0 15 -9 15 -20 0 -29 55 -30 97 -3 28
19 30 43 3 50 -17 4 -20 14 -20 54 0 27 4 49 9 49 11 0 32 -25 27 -31 -3 -2
13 -3 35 -1 23 3 46 -1 52 -7 6 -6 18 -11 27 -10 12 0 11 2 -3 7 -15 6 -13 9
13 19 16 6 28 7 24 2 -3 -5 2 -9 11 -9 8 0 18 8 21 18 3 9 12 31 21 47 11 20
18 63 21 135 3 97 2 107 -20 140 -52 77 -137 102 -206 60z m113 -74 c53 -53
57 -168 9 -226 -21 -25 -33 -30 -69 -30 -35 0 -48 5 -64 26 -18 23 -21 41 -21
116 0 81 2 91 25 113 33 33 87 34 120 1z m-115 -416 c0 -5 -4 -10 -10 -10 -5
0 -10 5 -10 10 0 6 5 10 10 10 6 0 10 -4 10 -10z"/>
<path d="M4065 1035 c-19 -11 -31 -12 -33 -6 -2 6 -19 11 -38 11 l-34 0 2
-202 3 -202 28 1 c15 1 32 1 37 2 6 1 10 58 10 149 0 167 4 176 81 188 38 6
40 9 37 38 -3 26 -7 31 -33 34 -16 1 -43 -5 -60 -13z"/>
<path d="M4295 1043 c-33 -9 -74 -43 -91 -74 -18 -36 -12 -49 24 -48 26 0 77
17 58 18 -13 1 24 35 47 44 32 12 97 -37 97 -73 0 -14 -16 -19 -84 -27 -101
-12 -141 -36 -156 -91 -33 -125 103 -211 216 -137 24 15 26 16 21 1 -5 -12 0
-16 18 -16 26 0 34 -15 13 -23 -8 -3 -6 -6 5 -6 9 -1 17 6 17 14 0 9 9 15 21
15 15 0 19 5 15 15 -3 9 -6 76 -7 149 -1 147 -11 182 -61 219 -27 20 -112 31
-153 20z m129 -229 c12 -32 5 -56 -23 -85 -34 -33 -89 -40 -115 -13 -17 17
-21 61 -7 82 19 30 135 43 145 16z"/>
<path d="M5276 1029 c-21 -17 -26 -18 -26 -5 0 12 -10 16 -40 16 l-40 0 2
-202 3 -203 35 0 35 0 5 148 c5 144 6 149 30 167 23 18 33 22 70 24 10 1 16
14 18 39 3 36 2 37 -31 37 -20 0 -46 -9 -61 -21z"/>
<path d="M5870 920 c0 -11 5 -20 10 -20 6 0 10 9 10 20 0 11 -4 20 -10 20 -5
0 -10 -9 -10 -20z"/>
<path d="M7530 930 c0 -5 5 -10 10 -10 6 0 10 5 10 10 0 6 -4 10 -10 10 -5 0
-10 -4 -10 -10z"/>
<path d="M7554 908 c-4 -6 -2 -14 4 -16 7 -2 12 -12 12 -23 0 -10 5 -19 10
-19 6 0 10 16 10 35 0 35 -20 49 -36 23z"/>
<path d="M1810 895 c0 -7 7 -12 15 -11 24 4 27 13 5 19 -13 3 -20 0 -20 -8z"/>
<path d="M2100 860 c0 -5 5 -10 10 -10 6 0 10 5 10 10 0 6 -4 10 -10 10 -5 0
-10 -4 -10 -10z"/>
<path d="M7673 749 c-6 -6 -9 -17 -7 -23 3 -7 -14 -33 -36 -59 -43 -48 -33
-68 10 -22 13 14 29 25 37 25 7 0 13 11 13 24 0 14 5 28 10 31 15 9 12 35 -3
35 -7 0 -18 -5 -24 -11z"/>
<path d="M7740 660 c0 -5 7 -10 15 -10 8 0 15 5 15 10 0 6 -7 10 -15 10 -8 0
-15 -4 -15 -10z"/>
<path d="M6590 636 c0 -9 5 -16 10 -16 6 0 10 4 10 9 0 6 -4 13 -10 16 -5 3
-10 -1 -10 -9z"/>
<path d="M7696 641 c-4 -5 -3 -16 0 -25 3 -9 1 -23 -6 -31 -10 -12 -9 -15 4
-15 9 0 16 8 16 18 0 9 3 27 6 40 6 22 -9 31 -20 13z"/>
<path d="M7745 619 c-4 -11 -4 -23 -1 -26 3 -4 6 1 6 10 0 10 5 17 10 17 6 0
10 5 10 10 0 18 -19 10 -25 -11z"/>
<path d="M5205 610 c4 -6 11 -8 16 -5 14 9 11 15 -7 15 -8 0 -12 -5 -9 -10z"/>
<path d="M7636 612 c-4 -6 -16 -12 -27 -12 -32 0 -22 -17 14 -23 17 -2 32 -4
33 -3 0 0 -2 12 -6 26 -4 17 -8 21 -14 12z"/>
<path d="M1415 580 c-3 -5 -1 -10 4 -10 6 0 11 5 11 10 0 6 -2 10 -4 10 -3 0
-8 -4 -11 -10z"/>
<path d="M2785 580 c3 -5 10 -10 16 -10 5 0 9 5 9 10 0 6 -7 10 -16 10 -8 0
-12 -4 -9 -10z"/>
<path d="M7575 560 c27 -12 43 -12 25 0 -8 5 -22 9 -30 9 -10 0 -8 -3 5 -9z"/>
<path d="M7630 549 c0 -5 5 -7 10 -4 6 3 10 8 10 11 0 2 -4 4 -10 4 -5 0 -10
-5 -10 -11z"/>
<path d="M7716 545 c-3 -8 -15 -15 -27 -15 -18 0 -19 -2 -9 -15 12 -15 3 -21
-24 -16 -5 1 -4 -5 3 -13 7 -9 17 -14 21 -11 17 11 21 -17 6 -34 -21 -23 -22
-83 -1 -75 8 4 15 14 15 24 0 10 5 31 10 46 10 25 12 26 27 12 18 -19 9 -40
-13 -31 -14 5 -15 3 -5 -15 13 -25 31 -38 31 -22 0 6 5 8 10 5 6 -3 10 1 10
10 0 9 -4 13 -10 10 -5 -3 -10 -1 -10 4 0 6 5 11 10 11 6 0 10 9 10 21 0 15
-5 19 -15 15 -10 -4 -15 1 -15 14 0 13 5 18 15 14 12 -5 15 2 15 29 0 23 -6
37 -16 41 -24 9 -31 7 -38 -9z m30 -22 c-10 -10 -19 5 -10 18 6 11 8 11 12 0
2 -7 1 -15 -2 -18z"/>
<path d="M3124 522 c-6 -4 -13 -17 -16 -29 -5 -18 -2 -23 12 -23 11 0 22 -4
25 -10 3 -5 15 -10 26 -10 11 0 36 -7 57 -17 20 -9 40 -15 44 -15 4 1 42 -10
85 -24 103 -34 133 -38 133 -18 0 25 -20 55 -32 48 -7 -4 -6 -9 3 -15 10 -6 4
-9 -18 -9 -30 0 -60 20 -31 20 8 1 5 7 -7 16 -14 10 -31 13 -58 9 -30 -6 -36
-4 -31 8 6 17 -21 30 -47 22 -11 -4 -19 -3 -19 2 0 4 -16 8 -37 9 -24 0 -42 8
-54 22 -19 24 -20 25 -35 14z"/>
<path d="M7569 503 c-11 -31 -5 -57 14 -51 15 6 22 78 7 78 -6 0 -15 -12 -21
-27z"/>
<path d="M7630 526 c0 -2 7 -6 15 -10 8 -3 15 -1 15 4 0 6 -7 10 -15 10 -8 0
-15 -2 -15 -4z"/>
<path d="M3070 508 c0 -9 -6 -19 -12 -21 -10 -4 -10 -6 0 -6 14 -1 28 26 18
36 -3 4 -6 -1 -6 -9z"/>
<path d="M890 499 c0 -5 5 -7 10 -4 6 3 10 8 10 11 0 2 -4 4 -10 4 -5 0 -10
-5 -10 -11z"/>
<path d="M2533 463 c-9 -19 -9 -25 2 -29 19 -8 35 4 35 26 0 28 -24 30 -37 3z"/>
<path d="M7505 426 c-3 -9 -7 -23 -10 -32 -3 -8 0 -24 5 -34 8 -16 14 -17 40
-7 33 12 40 27 14 27 -9 0 -23 -8 -30 -17 -12 -16 -13 -16 -14 9 0 18 6 29 21
33 11 4 18 12 16 18 -6 19 -36 20 -42 3z"/>
<path d="M7570 425 c0 -8 2 -15 4 -15 2 0 6 7 10 15 3 8 1 15 -4 15 -6 0 -10
-7 -10 -15z"/>
<path d="M7757 363 c-4 -3 -7 -18 -7 -32 l-1 -26 -19 24 c-11 13 -20 18 -20
12 0 -6 -8 -11 -18 -11 -14 0 -18 -6 -15 -27 5 -35 -18 -69 -41 -60 -9 4 -16
14 -16 24 1 17 1 17 14 0 12 -16 14 -16 20 -1 9 22 8 24 -9 24 -9 0 -15 9 -15
23 0 22 -13 1 -54 -95 -12 -27 -24 -38 -44 -41 l-27 -4 28 -2 c29 -1 32 -7 17
-31 -8 -13 -10 -12 -10 3 0 23 -17 22 -30 -2 -13 -26 -13 -40 1 -21 9 12 10
11 6 -5 -2 -11 2 -26 10 -33 18 -17 16 -29 -7 -52 -11 -11 -20 -22 -20 -25 0
-3 61 -5 135 -5 l135 0 0 185 c0 102 -1 185 -3 185 -2 0 -7 -3 -10 -7z m-62
-123 c3 -5 1 -10 -4 -10 -6 0 -11 5 -11 10 0 6 2 10 4 10 3 0 8 -4 11 -10z
m-64 -43 c-1 -12 -15 -9 -19 4 -3 6 1 10 8 8 6 -3 11 -8 11 -12z m-31 -62 c-7
-9 -15 -13 -17 -11 -7 7 7 26 19 26 6 0 6 -6 -2 -15z m40 -35 c0 -11 -4 -20
-10 -20 -5 0 -10 9 -10 20 0 11 5 20 10 20 6 0 10 -9 10 -20z m-60 -3 c0 -4 5
-5 10 -2 6 3 10 1 10 -4 0 -12 -6 -13 -37 -5 -28 8 -30 20 -3 20 11 0 20 -4
20 -9z m110 -29 c0 -6 -6 -5 -15 2 -8 7 -15 14 -15 16 0 2 7 1 15 -2 8 -4 15
-11 15 -16z"/>
<path d="M7390 330 c20 -13 33 -13 25 0 -3 6 -14 10 -23 10 -15 0 -15 -2 -2
-10z"/>
<path d="M7486 326 c3 -9 11 -16 16 -16 13 0 5 23 -10 28 -7 2 -10 -2 -6 -12z"/>
<path d="M726 214 c-3 -9 -6 -23 -6 -32 0 -21 15 -5 25 26 7 25 -9 31 -19 6z"/>
<path d="M7410 158 c0 -7 5 -20 10 -28 8 -12 10 -9 10 13 0 15 -4 27 -10 27
-5 0 -10 -6 -10 -12z"/>
<path d="M7158 113 c-8 -15 -3 -29 15 -48 18 -17 18 -17 15 15 -3 31 -21 51
-30 33z"/>
<path d="M2186 88 c-18 -25 -21 -48 -7 -48 19 0 46 56 31 65 -5 3 -16 -5 -24
-17z"/>
<path d="M745 80 c-3 -5 -1 -10 4 -10 6 0 11 5 11 10 0 6 -2 10 -4 10 -3 0 -8
-4 -11 -10z"/>
<path d="M7057 74 c-6 -10 9 -42 16 -34 3 3 1 14 -3 24 -3 11 -9 15 -13 10z"/>
<path d="M7388 52 c-20 -23 -30 -52 -17 -52 5 0 13 8 16 17 4 10 13 23 21 29
10 7 11 13 5 17 -6 4 -17 -1 -25 -11z"/>
<path d="M7445 60 c-3 -5 1 -10 9 -10 9 0 16 5 16 10 0 6 -4 10 -9 10 -6 0
-13 -4 -16 -10z"/>
<path d="M861 14 c0 -11 3 -14 6 -6 3 7 2 16 -1 19 -3 4 -6 -2 -5 -13z"/>
<path d="M7040 9 c0 -5 5 -7 10 -4 6 3 10 8 10 11 0 2 -4 4 -10 4 -5 0 -10 -5
-10 -11z"/>
</g>
</svg>
